<mxfile host="www.draw.io" modified="2019-12-13T02:39:35.297Z" agent="Mozilla/5.0 (Windows NT 10.0; Win64; x64; rv:68.0) Gecko/20100101 Firefox/68.0" etag="q9bBc1Z4Lh1aEWcd3Ihy" version="12.4.1" type="github" pages="2">
  <diagram id="z9E2HfaiViPVtJKLez_Z" name="ClassDiagram_SmartFridge">
    <mxGraphModel dx="2241" dy="836" grid="1" gridSize="10" guides="1" tooltips="1" connect="1" arrows="1" fold="1" page="1" pageScale="1" pageWidth="850" pageHeight="1100" math="0" shadow="0">
      <root>
        <mxCell id="0"/>
        <mxCell id="1" parent="0"/>
        <mxCell id="-ig6XEDNGkgXrQry_GE1-1" value="«interface»&#xa;Vons" style="swimlane;fontStyle=1;align=center;verticalAlign=top;childLayout=stackLayout;horizontal=1;startSize=42;horizontalStack=0;resizeParent=1;resizeParentMax=0;resizeLast=0;collapsible=1;marginBottom=0;" vertex="1" parent="1">
          <mxGeometry width="230" height="102" as="geometry"/>
        </mxCell>
        <mxCell id="-ig6XEDNGkgXrQry_GE1-2" value="" style="line;strokeWidth=1;fillColor=none;align=left;verticalAlign=middle;spacingTop=-1;spacingLeft=3;spacingRight=3;rotatable=0;labelPosition=right;points=[];portConstraint=eastwest;" vertex="1" parent="-ig6XEDNGkgXrQry_GE1-1">
          <mxGeometry y="42" width="230" height="8" as="geometry"/>
        </mxCell>
        <mxCell id="-ig6XEDNGkgXrQry_GE1-3" value="+ itemQuantity(upc: String): integer" style="text;strokeColor=none;fillColor=none;align=left;verticalAlign=top;spacingLeft=4;spacingRight=4;overflow=hidden;rotatable=0;points=[[0,0.5],[1,0.5]];portConstraint=eastwest;" vertex="1" parent="-ig6XEDNGkgXrQry_GE1-1">
          <mxGeometry y="50" width="230" height="26" as="geometry"/>
        </mxCell>
        <mxCell id="-ig6XEDNGkgXrQry_GE1-4" value="+ itemPrice(upc: String): float" style="text;strokeColor=none;fillColor=none;align=left;verticalAlign=top;spacingLeft=4;spacingRight=4;overflow=hidden;rotatable=0;points=[[0,0.5],[1,0.5]];portConstraint=eastwest;" vertex="1" parent="-ig6XEDNGkgXrQry_GE1-1">
          <mxGeometry y="76" width="230" height="26" as="geometry"/>
        </mxCell>
        <mxCell id="-ig6XEDNGkgXrQry_GE1-5" value="«interface»&#xa;ExpressRepair" style="swimlane;fontStyle=1;align=center;verticalAlign=top;childLayout=stackLayout;horizontal=1;startSize=42;horizontalStack=0;resizeParent=1;resizeParentMax=0;resizeLast=0;collapsible=1;marginBottom=0;" vertex="1" parent="1">
          <mxGeometry x="480" width="270" height="102" as="geometry"/>
        </mxCell>
        <mxCell id="-ig6XEDNGkgXrQry_GE1-6" value="" style="line;strokeWidth=1;fillColor=none;align=left;verticalAlign=middle;spacingTop=-1;spacingLeft=3;spacingRight=3;rotatable=0;labelPosition=right;points=[];portConstraint=eastwest;" vertex="1" parent="-ig6XEDNGkgXrQry_GE1-5">
          <mxGeometry y="42" width="270" height="8" as="geometry"/>
        </mxCell>
        <mxCell id="-ig6XEDNGkgXrQry_GE1-7" value="+ nextAvailable(): Date" style="text;strokeColor=none;fillColor=none;align=left;verticalAlign=top;spacingLeft=4;spacingRight=4;overflow=hidden;rotatable=0;points=[[0,0.5],[1,0.5]];portConstraint=eastwest;" vertex="1" parent="-ig6XEDNGkgXrQry_GE1-5">
          <mxGeometry y="50" width="270" height="26" as="geometry"/>
        </mxCell>
        <mxCell id="-ig6XEDNGkgXrQry_GE1-8" value="+ schedule(date: Date, address: String): boolean" style="text;strokeColor=none;fillColor=none;align=left;verticalAlign=top;spacingLeft=4;spacingRight=4;overflow=hidden;rotatable=0;points=[[0,0.5],[1,0.5]];portConstraint=eastwest;" vertex="1" parent="-ig6XEDNGkgXrQry_GE1-5">
          <mxGeometry y="76" width="270" height="26" as="geometry"/>
        </mxCell>
        <mxCell id="-ig6XEDNGkgXrQry_GE1-9" value="«interface»&#xa;Sears" style="swimlane;fontStyle=1;align=center;verticalAlign=top;childLayout=stackLayout;horizontal=1;startSize=42;horizontalStack=0;resizeParent=1;resizeParentMax=0;resizeLast=0;collapsible=1;marginBottom=0;" vertex="1" parent="1">
          <mxGeometry x="480" y="320" width="230" height="102" as="geometry"/>
        </mxCell>
        <mxCell id="-ig6XEDNGkgXrQry_GE1-10" value="" style="line;strokeWidth=1;fillColor=none;align=left;verticalAlign=middle;spacingTop=-1;spacingLeft=3;spacingRight=3;rotatable=0;labelPosition=right;points=[];portConstraint=eastwest;" vertex="1" parent="-ig6XEDNGkgXrQry_GE1-9">
          <mxGeometry y="42" width="230" height="8" as="geometry"/>
        </mxCell>
        <mxCell id="-ig6XEDNGkgXrQry_GE1-11" value="+ isAvailable(date: Date): boolean" style="text;strokeColor=none;fillColor=none;align=left;verticalAlign=top;spacingLeft=4;spacingRight=4;overflow=hidden;rotatable=0;points=[[0,0.5],[1,0.5]];portConstraint=eastwest;" vertex="1" parent="-ig6XEDNGkgXrQry_GE1-9">
          <mxGeometry y="50" width="230" height="26" as="geometry"/>
        </mxCell>
        <mxCell id="-ig6XEDNGkgXrQry_GE1-12" value="+ schedule(address: String, model: String, date: Date)" style="text;strokeColor=none;fillColor=none;align=left;verticalAlign=top;spacingLeft=4;spacingRight=4;overflow=hidden;rotatable=0;points=[[0,0.5],[1,0.5]];portConstraint=eastwest;" vertex="1" parent="-ig6XEDNGkgXrQry_GE1-9">
          <mxGeometry y="76" width="230" height="26" as="geometry"/>
        </mxCell>
        <mxCell id="-ig6XEDNGkgXrQry_GE1-13" value="«interface»&#xa;RaysAppliance" style="swimlane;fontStyle=1;align=center;verticalAlign=top;childLayout=stackLayout;horizontal=1;startSize=42;horizontalStack=0;resizeParent=1;resizeParentMax=0;resizeLast=0;collapsible=1;marginBottom=0;" vertex="1" parent="1">
          <mxGeometry x="480" y="160" width="290" height="76" as="geometry"/>
        </mxCell>
        <mxCell id="-ig6XEDNGkgXrQry_GE1-14" value="" style="line;strokeWidth=1;fillColor=none;align=left;verticalAlign=middle;spacingTop=-1;spacingLeft=3;spacingRight=3;rotatable=0;labelPosition=right;points=[];portConstraint=eastwest;" vertex="1" parent="-ig6XEDNGkgXrQry_GE1-13">
          <mxGeometry y="42" width="290" height="8" as="geometry"/>
        </mxCell>
        <mxCell id="-ig6XEDNGkgXrQry_GE1-15" value="+ trySchedule(date: Date, address: String): boolean" style="text;strokeColor=none;fillColor=none;align=left;verticalAlign=top;spacingLeft=4;spacingRight=4;overflow=hidden;rotatable=0;points=[[0,0.5],[1,0.5]];portConstraint=eastwest;" vertex="1" parent="-ig6XEDNGkgXrQry_GE1-13">
          <mxGeometry y="50" width="290" height="26" as="geometry"/>
        </mxCell>
        <mxCell id="-ig6XEDNGkgXrQry_GE1-16" value="«interface»&#xa;Albertsons" style="swimlane;fontStyle=1;align=center;verticalAlign=top;childLayout=stackLayout;horizontal=1;startSize=42;horizontalStack=0;resizeParent=1;resizeParentMax=0;resizeLast=0;collapsible=1;marginBottom=0;" vertex="1" parent="1">
          <mxGeometry y="320" width="230" height="102" as="geometry"/>
        </mxCell>
        <mxCell id="-ig6XEDNGkgXrQry_GE1-17" value="" style="line;strokeWidth=1;fillColor=none;align=left;verticalAlign=middle;spacingTop=-1;spacingLeft=3;spacingRight=3;rotatable=0;labelPosition=right;points=[];portConstraint=eastwest;" vertex="1" parent="-ig6XEDNGkgXrQry_GE1-16">
          <mxGeometry y="42" width="230" height="8" as="geometry"/>
        </mxCell>
        <mxCell id="-ig6XEDNGkgXrQry_GE1-18" value="+ quantity(upc: String): integer" style="text;strokeColor=none;fillColor=none;align=left;verticalAlign=top;spacingLeft=4;spacingRight=4;overflow=hidden;rotatable=0;points=[[0,0.5],[1,0.5]];portConstraint=eastwest;" vertex="1" parent="-ig6XEDNGkgXrQry_GE1-16">
          <mxGeometry y="50" width="230" height="26" as="geometry"/>
        </mxCell>
        <mxCell id="-ig6XEDNGkgXrQry_GE1-19" value="+ unitPrice(upc: String): double" style="text;strokeColor=none;fillColor=none;align=left;verticalAlign=top;spacingLeft=4;spacingRight=4;overflow=hidden;rotatable=0;points=[[0,0.5],[1,0.5]];portConstraint=eastwest;" vertex="1" parent="-ig6XEDNGkgXrQry_GE1-16">
          <mxGeometry y="76" width="230" height="26" as="geometry"/>
        </mxCell>
        <mxCell id="-ig6XEDNGkgXrQry_GE1-20" value="«interface»&#xa;Ralphs" style="swimlane;fontStyle=1;align=center;verticalAlign=top;childLayout=stackLayout;horizontal=1;startSize=42;horizontalStack=0;resizeParent=1;resizeParentMax=0;resizeLast=0;collapsible=1;marginBottom=0;" vertex="1" parent="1">
          <mxGeometry y="163" width="300" height="102" as="geometry"/>
        </mxCell>
        <mxCell id="-ig6XEDNGkgXrQry_GE1-21" value="" style="line;strokeWidth=1;fillColor=none;align=left;verticalAlign=middle;spacingTop=-1;spacingLeft=3;spacingRight=3;rotatable=0;labelPosition=right;points=[];portConstraint=eastwest;" vertex="1" parent="-ig6XEDNGkgXrQry_GE1-20">
          <mxGeometry y="42" width="300" height="8" as="geometry"/>
        </mxCell>
        <mxCell id="-ig6XEDNGkgXrQry_GE1-22" value="+ hasQuantity(upc: String, quantity: integer): boolean" style="text;strokeColor=none;fillColor=none;align=left;verticalAlign=top;spacingLeft=4;spacingRight=4;overflow=hidden;rotatable=0;points=[[0,0.5],[1,0.5]];portConstraint=eastwest;" vertex="1" parent="-ig6XEDNGkgXrQry_GE1-20">
          <mxGeometry y="50" width="300" height="26" as="geometry"/>
        </mxCell>
        <mxCell id="-ig6XEDNGkgXrQry_GE1-23" value="+ totalPrice(upc: String, quantity: integer): BigDecimal" style="text;strokeColor=none;fillColor=none;align=left;verticalAlign=top;spacingLeft=4;spacingRight=4;overflow=hidden;rotatable=0;points=[[0,0.5],[1,0.5]];portConstraint=eastwest;" vertex="1" parent="-ig6XEDNGkgXrQry_GE1-20">
          <mxGeometry y="76" width="300" height="26" as="geometry"/>
        </mxCell>
        <mxCell id="OHUQc1ipYSVph8CtJDgN-2" style="edgeStyle=orthogonalEdgeStyle;rounded=0;orthogonalLoop=1;jettySize=auto;html=1;endArrow=blockThin;endFill=0;" edge="1" parent="1" source="-ig6XEDNGkgXrQry_GE1-24" target="-ig6XEDNGkgXrQry_GE1-16">
          <mxGeometry relative="1" as="geometry"/>
        </mxCell>
        <mxCell id="OHUQc1ipYSVph8CtJDgN-3" style="edgeStyle=orthogonalEdgeStyle;rounded=0;orthogonalLoop=1;jettySize=auto;html=1;exitX=0.25;exitY=0;exitDx=0;exitDy=0;entryX=0;entryY=0.25;entryDx=0;entryDy=0;endArrow=blockThin;endFill=0;" edge="1" parent="1" source="-ig6XEDNGkgXrQry_GE1-24" target="-ig6XEDNGkgXrQry_GE1-20">
          <mxGeometry relative="1" as="geometry">
            <Array as="points">
              <mxPoint x="47" y="440"/>
              <mxPoint x="-20" y="440"/>
              <mxPoint x="-20" y="189"/>
            </Array>
          </mxGeometry>
        </mxCell>
        <mxCell id="OHUQc1ipYSVph8CtJDgN-4" style="edgeStyle=orthogonalEdgeStyle;rounded=0;orthogonalLoop=1;jettySize=auto;html=1;exitX=0;exitY=0.25;exitDx=0;exitDy=0;entryX=0;entryY=0.25;entryDx=0;entryDy=0;endArrow=blockThin;endFill=0;" edge="1" parent="1" source="-ig6XEDNGkgXrQry_GE1-24" target="-ig6XEDNGkgXrQry_GE1-1">
          <mxGeometry relative="1" as="geometry"/>
        </mxCell>
        <mxCell id="OHUQc1ipYSVph8CtJDgN-5" style="edgeStyle=orthogonalEdgeStyle;rounded=0;orthogonalLoop=1;jettySize=auto;html=1;exitX=1;exitY=0.5;exitDx=0;exitDy=0;entryX=0;entryY=0.25;entryDx=0;entryDy=0;endArrow=blockThin;endFill=0;" edge="1" parent="1" source="-ig6XEDNGkgXrQry_GE1-24" target="-ig6XEDNGkgXrQry_GE1-9">
          <mxGeometry relative="1" as="geometry">
            <Array as="points">
              <mxPoint x="240" y="598"/>
              <mxPoint x="240" y="520"/>
              <mxPoint x="400" y="520"/>
              <mxPoint x="400" y="345"/>
            </Array>
          </mxGeometry>
        </mxCell>
        <mxCell id="OHUQc1ipYSVph8CtJDgN-11" style="edgeStyle=orthogonalEdgeStyle;rounded=0;orthogonalLoop=1;jettySize=auto;html=1;exitX=1;exitY=0.25;exitDx=0;exitDy=0;entryX=0;entryY=0.5;entryDx=0;entryDy=0;endArrow=blockThin;endFill=0;" edge="1" parent="1" source="-ig6XEDNGkgXrQry_GE1-24" target="-ig6XEDNGkgXrQry_GE1-13">
          <mxGeometry relative="1" as="geometry">
            <Array as="points">
              <mxPoint x="190" y="520"/>
              <mxPoint x="360" y="520"/>
              <mxPoint x="360" y="198"/>
            </Array>
          </mxGeometry>
        </mxCell>
        <mxCell id="OHUQc1ipYSVph8CtJDgN-12" style="edgeStyle=orthogonalEdgeStyle;rounded=0;orthogonalLoop=1;jettySize=auto;html=1;exitX=0.75;exitY=0;exitDx=0;exitDy=0;entryX=0;entryY=0.25;entryDx=0;entryDy=0;endArrow=blockThin;endFill=0;" edge="1" parent="1" source="-ig6XEDNGkgXrQry_GE1-24" target="-ig6XEDNGkgXrQry_GE1-5">
          <mxGeometry relative="1" as="geometry">
            <Array as="points">
              <mxPoint x="143" y="520"/>
              <mxPoint x="360" y="520"/>
              <mxPoint x="360" y="25"/>
            </Array>
          </mxGeometry>
        </mxCell>
        <mxCell id="-ig6XEDNGkgXrQry_GE1-24" value="«interface»&#xa;Monitor" style="swimlane;fontStyle=1;align=center;verticalAlign=top;childLayout=stackLayout;horizontal=1;startSize=42;horizontalStack=0;resizeParent=1;resizeParentMax=0;resizeLast=0;collapsible=1;marginBottom=0;" vertex="1" parent="1">
          <mxGeometry y="560" width="190" height="76" as="geometry"/>
        </mxCell>
        <mxCell id="-ig6XEDNGkgXrQry_GE1-25" value="" style="line;strokeWidth=1;fillColor=none;align=left;verticalAlign=middle;spacingTop=-1;spacingLeft=3;spacingRight=3;rotatable=0;labelPosition=right;points=[];portConstraint=eastwest;" vertex="1" parent="-ig6XEDNGkgXrQry_GE1-24">
          <mxGeometry y="42" width="190" height="8" as="geometry"/>
        </mxCell>
        <mxCell id="-ig6XEDNGkgXrQry_GE1-26" value="+ totalStoreStock(upc: String, quantity: integer): type" style="text;strokeColor=none;fillColor=none;align=left;verticalAlign=top;spacingLeft=4;spacingRight=4;overflow=hidden;rotatable=0;points=[[0,0.5],[1,0.5]];portConstraint=eastwest;" vertex="1" parent="-ig6XEDNGkgXrQry_GE1-24">
          <mxGeometry y="50" width="190" height="26" as="geometry"/>
        </mxCell>
        <mxCell id="-ig6XEDNGkgXrQry_GE1-27" value="SmartFridge" style="swimlane;fontStyle=1;align=center;verticalAlign=top;childLayout=stackLayout;horizontal=1;startSize=26;horizontalStack=0;resizeParent=1;resizeParentMax=0;resizeLast=0;collapsible=1;marginBottom=0;" vertex="1" parent="1">
          <mxGeometry x="280" y="560" width="160" height="86" as="geometry"/>
        </mxCell>
        <mxCell id="-ig6XEDNGkgXrQry_GE1-28" value="- fridgeStock: string" style="text;strokeColor=none;fillColor=none;align=left;verticalAlign=top;spacingLeft=4;spacingRight=4;overflow=hidden;rotatable=0;points=[[0,0.5],[1,0.5]];portConstraint=eastwest;" vertex="1" parent="-ig6XEDNGkgXrQry_GE1-27">
          <mxGeometry y="26" width="160" height="26" as="geometry"/>
        </mxCell>
        <mxCell id="-ig6XEDNGkgXrQry_GE1-29" value="" style="line;strokeWidth=1;fillColor=none;align=left;verticalAlign=middle;spacingTop=-1;spacingLeft=3;spacingRight=3;rotatable=0;labelPosition=right;points=[];portConstraint=eastwest;" vertex="1" parent="-ig6XEDNGkgXrQry_GE1-27">
          <mxGeometry y="52" width="160" height="8" as="geometry"/>
        </mxCell>
        <mxCell id="-ig6XEDNGkgXrQry_GE1-30" value="+ totalStoreStock(upc: String, quantity: integer): type" style="text;strokeColor=none;fillColor=none;align=left;verticalAlign=top;spacingLeft=4;spacingRight=4;overflow=hidden;rotatable=0;points=[[0,0.5],[1,0.5]];portConstraint=eastwest;" vertex="1" parent="-ig6XEDNGkgXrQry_GE1-27">
          <mxGeometry y="60" width="160" height="26" as="geometry"/>
        </mxCell>
        <mxCell id="-ig6XEDNGkgXrQry_GE1-31" value="" style="endArrow=block;dashed=1;endFill=0;endSize=16;html=1;" edge="1" parent="1">
          <mxGeometry width="160" relative="1" as="geometry">
            <mxPoint x="20" y="680" as="sourcePoint"/>
            <mxPoint x="180" y="680" as="targetPoint"/>
          </mxGeometry>
        </mxCell>
        <mxCell id="-ig6XEDNGkgXrQry_GE1-32" value="implements" style="text;html=1;align=center;verticalAlign=bottom;resizable=0;points=[];;labelBackgroundColor=#ffffff;" vertex="1" connectable="0" parent="-ig6XEDNGkgXrQry_GE1-31">
          <mxGeometry x="-0.3" y="-1" relative="1" as="geometry">
            <mxPoint x="4" y="-1" as="offset"/>
          </mxGeometry>
        </mxCell>
        <mxCell id="-ig6XEDNGkgXrQry_GE1-33" value="" style="endArrow=block;endSize=16;endFill=0;html=1;" edge="1" parent="1">
          <mxGeometry width="160" relative="1" as="geometry">
            <mxPoint x="280" y="680" as="sourcePoint"/>
            <mxPoint x="440" y="680" as="targetPoint"/>
          </mxGeometry>
        </mxCell>
        <mxCell id="-ig6XEDNGkgXrQry_GE1-34" value="extends" style="text;html=1;align=center;verticalAlign=bottom;resizable=0;points=[];;labelBackgroundColor=#ffffff;" vertex="1" connectable="0" parent="-ig6XEDNGkgXrQry_GE1-33">
          <mxGeometry x="-0.15" relative="1" as="geometry">
            <mxPoint as="offset"/>
          </mxGeometry>
        </mxCell>
        <mxCell id="-ig6XEDNGkgXrQry_GE1-35" value="" style="endArrow=diamondThin;endFill=1;endSize=24;html=1;" edge="1" parent="1">
          <mxGeometry width="160" relative="1" as="geometry">
            <mxPoint x="20" y="740" as="sourcePoint"/>
            <mxPoint x="180" y="740" as="targetPoint"/>
          </mxGeometry>
        </mxCell>
        <mxCell id="-ig6XEDNGkgXrQry_GE1-36" value="composition" style="text;html=1;align=center;verticalAlign=bottom;resizable=0;points=[];;labelBackgroundColor=#ffffff;" vertex="1" connectable="0" parent="-ig6XEDNGkgXrQry_GE1-35">
          <mxGeometry x="-0.2375" y="1" relative="1" as="geometry">
            <mxPoint as="offset"/>
          </mxGeometry>
        </mxCell>
        <mxCell id="-ig6XEDNGkgXrQry_GE1-37" value="" style="endArrow=diamondThin;endFill=0;endSize=24;html=1;" edge="1" parent="1">
          <mxGeometry width="160" relative="1" as="geometry">
            <mxPoint x="280" y="740" as="sourcePoint"/>
            <mxPoint x="440" y="740" as="targetPoint"/>
          </mxGeometry>
        </mxCell>
        <mxCell id="-ig6XEDNGkgXrQry_GE1-38" value="aggregation" style="text;html=1;align=center;verticalAlign=bottom;resizable=0;points=[];;labelBackgroundColor=#ffffff;" vertex="1" connectable="0" parent="-ig6XEDNGkgXrQry_GE1-37">
          <mxGeometry x="-0.175" y="2" relative="1" as="geometry">
            <mxPoint as="offset"/>
          </mxGeometry>
        </mxCell>
        <mxCell id="OHUQc1ipYSVph8CtJDgN-1" style="edgeStyle=orthogonalEdgeStyle;rounded=0;orthogonalLoop=1;jettySize=auto;html=1;endArrow=blockThin;endFill=0;entryX=1;entryY=0.5;entryDx=0;entryDy=0;" edge="1" parent="1" source="-ig6XEDNGkgXrQry_GE1-28" target="-ig6XEDNGkgXrQry_GE1-26">
          <mxGeometry relative="1" as="geometry">
            <mxPoint x="210" y="599" as="targetPoint"/>
          </mxGeometry>
        </mxCell>
      </root>
    </mxGraphModel>
  </diagram>
  <diagram id="VC-fbIuvGJYDDxZZ6xTv" name="SequenceDiagram_SmartFridge">
    <mxGraphModel dx="1182" dy="711" grid="1" gridSize="10" guides="1" tooltips="1" connect="1" arrows="1" fold="1" page="1" pageScale="1" pageWidth="850" pageHeight="1100" math="0" shadow="0">
      <root>
        <mxCell id="ZcSr3NB8u_nz78DxC8lj-0"/>
        <mxCell id="ZcSr3NB8u_nz78DxC8lj-1" parent="ZcSr3NB8u_nz78DxC8lj-0"/>
        <mxCell id="xlSzm6LqCcU1XExFqyf4-0" style="edgeStyle=orthogonalEdgeStyle;rounded=0;orthogonalLoop=1;jettySize=auto;html=1;endArrow=blockThin;endFill=0;dashed=1;" edge="1" parent="ZcSr3NB8u_nz78DxC8lj-1" source="Dnxbb0gQE78eo6-RQ6Rd-11">
          <mxGeometry relative="1" as="geometry">
            <mxPoint x="140" y="640" as="targetPoint"/>
          </mxGeometry>
        </mxCell>
        <mxCell id="7dQQDA-TgyCyUY0KTEKj-0" value="SmartFridge" style="html=1;" vertex="1" parent="ZcSr3NB8u_nz78DxC8lj-1">
          <mxGeometry x="80" y="80" width="120" height="40" as="geometry"/>
        </mxCell>
        <mxCell id="xlSzm6LqCcU1XExFqyf4-1" style="edgeStyle=orthogonalEdgeStyle;rounded=0;orthogonalLoop=1;jettySize=auto;html=1;endArrow=blockThin;endFill=0;dashed=1;" edge="1" parent="ZcSr3NB8u_nz78DxC8lj-1" source="Dnxbb0gQE78eo6-RQ6Rd-4">
          <mxGeometry relative="1" as="geometry">
            <mxPoint x="340" y="640" as="targetPoint"/>
          </mxGeometry>
        </mxCell>
        <mxCell id="7dQQDA-TgyCyUY0KTEKj-1" value="Monitor" style="html=1;" vertex="1" parent="ZcSr3NB8u_nz78DxC8lj-1">
          <mxGeometry x="280" y="80" width="120" height="40" as="geometry"/>
        </mxCell>
        <mxCell id="xlSzm6LqCcU1XExFqyf4-2" style="edgeStyle=orthogonalEdgeStyle;rounded=0;orthogonalLoop=1;jettySize=auto;html=1;endArrow=blockThin;endFill=0;dashed=1;" edge="1" parent="ZcSr3NB8u_nz78DxC8lj-1" source="7dQQDA-TgyCyUY0KTEKj-2">
          <mxGeometry relative="1" as="geometry">
            <mxPoint x="540" y="640" as="targetPoint"/>
          </mxGeometry>
        </mxCell>
        <mxCell id="7dQQDA-TgyCyUY0KTEKj-2" value="Servers" style="html=1;" vertex="1" parent="ZcSr3NB8u_nz78DxC8lj-1">
          <mxGeometry x="480" y="80" width="120" height="40" as="geometry"/>
        </mxCell>
        <mxCell id="Dnxbb0gQE78eo6-RQ6Rd-0" value="" style="html=1;points=[];perimeter=orthogonalPerimeter;" vertex="1" parent="ZcSr3NB8u_nz78DxC8lj-1">
          <mxGeometry x="335" y="160" width="10" height="40" as="geometry"/>
        </mxCell>
        <mxCell id="Dnxbb0gQE78eo6-RQ6Rd-1" style="edgeStyle=orthogonalEdgeStyle;rounded=0;orthogonalLoop=1;jettySize=auto;html=1;endArrow=blockThin;endFill=0;dashed=1;" edge="1" parent="ZcSr3NB8u_nz78DxC8lj-1" source="7dQQDA-TgyCyUY0KTEKj-1" target="Dnxbb0gQE78eo6-RQ6Rd-0">
          <mxGeometry relative="1" as="geometry">
            <mxPoint x="340" y="640" as="targetPoint"/>
            <mxPoint x="340" y="120" as="sourcePoint"/>
          </mxGeometry>
        </mxCell>
        <mxCell id="Dnxbb0gQE78eo6-RQ6Rd-3" value="&lt;div&gt;openApplication&lt;/div&gt;" style="html=1;verticalAlign=bottom;startArrow=oval;startFill=1;endArrow=block;startSize=8;" edge="1" parent="ZcSr3NB8u_nz78DxC8lj-1">
          <mxGeometry width="60" relative="1" as="geometry">
            <mxPoint x="140" y="170" as="sourcePoint"/>
            <mxPoint x="330" y="170" as="targetPoint"/>
          </mxGeometry>
        </mxCell>
        <mxCell id="Dnxbb0gQE78eo6-RQ6Rd-4" value="" style="html=1;points=[];perimeter=orthogonalPerimeter;" vertex="1" parent="ZcSr3NB8u_nz78DxC8lj-1">
          <mxGeometry x="335" y="220" width="10" height="40" as="geometry"/>
        </mxCell>
        <mxCell id="Dnxbb0gQE78eo6-RQ6Rd-5" style="edgeStyle=orthogonalEdgeStyle;rounded=0;orthogonalLoop=1;jettySize=auto;html=1;endArrow=blockThin;endFill=0;dashed=1;" edge="1" parent="ZcSr3NB8u_nz78DxC8lj-1" source="Dnxbb0gQE78eo6-RQ6Rd-0" target="Dnxbb0gQE78eo6-RQ6Rd-4">
          <mxGeometry relative="1" as="geometry">
            <mxPoint x="340" y="640" as="targetPoint"/>
            <mxPoint x="340" y="200" as="sourcePoint"/>
          </mxGeometry>
        </mxCell>
        <mxCell id="Dnxbb0gQE78eo6-RQ6Rd-9" value="" style="shape=requiredInterface;html=1;verticalLabelPosition=bottom;" vertex="1" parent="ZcSr3NB8u_nz78DxC8lj-1">
          <mxGeometry x="345" y="180" width="30" height="60" as="geometry"/>
        </mxCell>
        <mxCell id="Dnxbb0gQE78eo6-RQ6Rd-10" value="activateMonitor" style="text;align=center;fontStyle=0;verticalAlign=middle;spacingLeft=3;spacingRight=3;strokeColor=none;rotatable=0;points=[[0,0.5],[1,0.5]];portConstraint=eastwest;" vertex="1" parent="ZcSr3NB8u_nz78DxC8lj-1">
          <mxGeometry x="385" y="194" width="80" height="26" as="geometry"/>
        </mxCell>
        <mxCell id="Dnxbb0gQE78eo6-RQ6Rd-11" value="" style="html=1;points=[];perimeter=orthogonalPerimeter;" vertex="1" parent="ZcSr3NB8u_nz78DxC8lj-1">
          <mxGeometry x="135" y="240" width="10" height="40" as="geometry"/>
        </mxCell>
        <mxCell id="Dnxbb0gQE78eo6-RQ6Rd-12" style="edgeStyle=orthogonalEdgeStyle;rounded=0;orthogonalLoop=1;jettySize=auto;html=1;endArrow=blockThin;endFill=0;dashed=1;" edge="1" parent="ZcSr3NB8u_nz78DxC8lj-1" source="7dQQDA-TgyCyUY0KTEKj-0" target="Dnxbb0gQE78eo6-RQ6Rd-11">
          <mxGeometry relative="1" as="geometry">
            <mxPoint x="140" y="640" as="targetPoint"/>
            <mxPoint x="140" y="120" as="sourcePoint"/>
          </mxGeometry>
        </mxCell>
        <mxCell id="Dnxbb0gQE78eo6-RQ6Rd-13" value="&lt;div&gt;getFridgeStock&lt;/div&gt;" style="html=1;verticalAlign=bottom;endArrow=block;entryX=1.5;entryY=0.25;entryDx=0;entryDy=0;entryPerimeter=0;" edge="1" parent="ZcSr3NB8u_nz78DxC8lj-1" target="Dnxbb0gQE78eo6-RQ6Rd-11">
          <mxGeometry width="80" relative="1" as="geometry">
            <mxPoint x="330" y="250" as="sourcePoint"/>
            <mxPoint x="330" y="260" as="targetPoint"/>
          </mxGeometry>
        </mxCell>
      </root>
    </mxGraphModel>
  </diagram>
</mxfile>
